<svg width="38" height="38" viewBox="0 0 38 38" fill="none" xmlns="http://www.w3.org/2000/svg">
<path d="M28.2773 24.2547H31.8992C32.4039 24.2547 32.8121 23.8465 32.8121 23.3418C32.8121 22.8371 32.4039 22.4289 31.8992 22.4289H28.2773V19.9945H34.7121C36.1 19.9945 37.2207 18.8664 37.2207 17.4859V14.8363C37.2207 14.3316 36.8125 13.9234 36.3078 13.9234C35.8031 13.9234 35.3949 14.3316 35.3949 14.8363V17.4859C35.3949 17.8644 35.0832 18.1762 34.7047 18.1762H28.2773V15.7418H31.8992C32.4039 15.7418 32.8121 15.3336 32.8121 14.8289C32.8121 14.3242 32.4039 13.916 31.8992 13.916H28.2773V10.5687C28.2773 10.0641 27.8691 9.65585 27.3645 9.65585H24.0172V6.14531C24.0172 5.64062 23.609 5.23242 23.1043 5.23242C22.5996 5.23242 22.1914 5.64062 22.1914 6.14531V9.67812H19.757V3.33242C19.757 1.94453 18.6289 0.823822 17.2484 0.823822H14.5988C14.0941 0.823822 13.6859 1.23203 13.6859 1.73671C13.6859 2.2414 14.0941 2.64218 14.5988 2.64218H17.2484C17.627 2.64218 17.9387 2.9539 17.9387 3.33242V9.6707H15.5043V6.14531C15.5043 5.64062 15.0961 5.23242 14.5914 5.23242C14.0867 5.23242 13.6785 5.64062 13.6785 6.14531V9.67812H10.3313C9.82656 9.67812 9.41836 10.0863 9.41836 10.591V13.9383H6.10078C5.59609 13.9383 5.18789 14.3465 5.18789 14.8512C5.18789 15.3559 5.59609 15.7641 6.10078 15.7641H9.44805V18.1836H3.28789C1.9 18.1836 0.779297 19.3117 0.779297 20.6922V23.3418C0.779297 23.8465 1.1875 24.2547 1.68477 24.2547C2.18203 24.2547 2.59766 23.8465 2.59766 23.3492V20.6996C2.59766 20.3211 2.90937 20.0094 3.28789 20.0094H9.44063V22.4437H6.10078C5.59609 22.4437 5.18789 22.8519 5.18789 23.3566C5.18789 23.8613 5.59609 24.2695 6.10078 24.2695H9.44805V27.6168C9.44805 28.1215 9.85625 28.5297 10.3609 28.5297H13.7082V31.8769C13.7082 32.3816 14.1164 32.7898 14.6211 32.7898C15.1258 32.7898 15.534 32.3816 15.534 31.8769V28.5297H17.9684V34.6824C17.9684 36.0703 19.0965 37.191 20.477 37.191H23.1266C23.6313 37.191 24.0395 36.7828 24.0395 36.2781C24.0395 35.7734 23.6313 35.3652 23.1266 35.3652H20.477C20.0984 35.3652 19.7867 35.0535 19.7867 34.675V28.5223H22.2211V31.8695C22.2211 32.3742 22.6293 32.7824 23.134 32.7824C23.6387 32.7824 24.0469 32.3742 24.0469 31.8695V28.5223H27.3941C27.8988 28.5223 28.307 28.1141 28.307 27.6094V24.2547H28.2773ZM26.459 26.6891H11.259V11.4965H26.459V26.6891Z" fill="white"/>
<path d="M14.3392 24.5219H23.3864C23.8911 24.5219 24.2993 24.1137 24.2993 23.609V14.5691C24.2993 14.0645 23.8911 13.6562 23.3864 13.6562H14.3392C13.8345 13.6562 13.4263 14.0645 13.4263 14.5691V23.6164C13.4263 24.1211 13.8345 24.5219 14.3392 24.5219ZM15.2446 15.482H22.4735V22.7109H15.2446V15.482Z" fill="white"/>
</svg>
