<svg width="38" height="38" viewBox="0 0 38 38" fill="none" xmlns="http://www.w3.org/2000/svg">
<path d="M13.9088 10.643C13.9088 11.1477 14.317 11.5559 14.8217 11.5559H23.1787C23.6834 11.5559 24.0916 11.1477 24.0916 10.643V7.37734H35.3729V30.7785H30.1107L32.4189 28.4703C32.7752 28.1141 32.7752 27.5426 32.4189 27.1863C32.0627 26.8301 31.4912 26.8301 31.135 27.1863L27.2756 31.0457C27.1049 31.2164 27.0084 31.4465 27.0084 31.6914C27.0084 31.9363 27.1049 32.1664 27.2756 32.3371L31.135 36.1965C31.3131 36.3746 31.5432 36.4637 31.7807 36.4637C32.0182 36.4637 32.2482 36.3746 32.4264 36.1965C32.7826 35.8402 32.7826 35.2687 32.4264 34.9125L30.1182 32.6043H36.2857C36.7904 32.6043 37.1986 32.1961 37.1986 31.6914V6.46445C37.1986 5.95976 36.7904 5.55156 36.2857 5.55156H24.0842V2.28594C24.0842 1.78125 23.676 1.37305 23.1713 1.37305H14.8143C14.3096 1.37305 13.9014 1.78125 13.9014 2.28594V10.643H13.9088ZM15.7271 3.19883H22.2658V9.7375H15.7271V3.19883Z" fill="white"/>
<path d="M13.9087 14.8214V23.1785C13.9087 23.6832 14.3169 24.0914 14.8216 24.0914H23.1786C23.6833 24.0914 24.0915 23.6832 24.0915 23.1785V14.8214C24.0915 14.3168 23.6833 13.9086 23.1786 13.9086H14.8142C14.3169 13.916 13.9087 14.3168 13.9087 14.8214ZM15.7271 15.7343H22.2657V22.2656H15.7271V15.7343Z" fill="white"/>
<path d="M1.7293 32.441H13.9086V35.7067C13.9086 36.2113 14.3168 36.6195 14.8215 36.6195H23.1785C23.6832 36.6195 24.0914 36.2113 24.0914 35.7067V27.357C24.0914 26.8524 23.6832 26.4442 23.1785 26.4442H14.8141C14.3094 26.4442 13.9012 26.8524 13.9012 27.357V30.6227H2.63477V7.2215H7.88203L5.57383 9.5297C5.21758 9.88595 5.21758 10.4574 5.57383 10.8137C5.75195 10.9918 5.98203 11.0809 6.21953 11.0809C6.45703 11.0809 6.68711 10.9918 6.86524 10.8137L10.7246 6.95431C11.0809 6.59806 11.0809 6.02658 10.7246 5.67033L6.86524 1.81095C6.50899 1.4547 5.9375 1.4547 5.58125 1.81095C5.225 2.1672 5.225 2.73869 5.58125 3.09494L7.88945 5.40314H1.7293C1.22461 5.40314 0.82383 5.81134 0.82383 6.31603V31.5356C0.816408 32.0328 1.22461 32.441 1.7293 32.441ZM15.727 28.2625H22.2656V34.8012H15.727V28.2625Z" fill="white"/>
</svg>
