<svg width="38" height="38" viewBox="0 0 38 38" fill="none" xmlns="http://www.w3.org/2000/svg">
<path d="M36.5898 26.1918V12.9141C36.5898 11.1477 35.15 9.70781 33.3836 9.70781H29.9102V2.94648C29.9102 1.77383 28.9527 0.816406 27.7801 0.816406H10.2051C9.03242 0.816406 8.075 1.77383 8.075 2.94648V9.71523H4.61641C2.85 9.70781 1.41016 11.1477 1.41016 12.9141V26.1918C1.41016 27.9582 2.85 29.398 4.61641 29.398H8.08242V35.0535C8.08242 36.2262 9.03984 37.1836 10.2125 37.1836H27.7875C28.9602 37.1836 29.9176 36.2262 29.9176 35.0535V29.398H33.3836C35.15 29.398 36.5898 27.9656 36.5898 26.1918ZM9.90078 2.94648C9.90078 2.77578 10.0418 2.63477 10.2125 2.63477H27.7875C27.9582 2.63477 28.0992 2.77578 28.0992 2.94648V9.71523H9.90078V2.94648ZM28.0992 35.0535C28.0992 35.2242 27.9582 35.3652 27.7875 35.3652H10.2125C10.0418 35.3652 9.90078 35.2242 9.90078 35.0535V20.4621H28.0918V35.0535H28.0992ZM29.0047 18.6437H8.99531C8.49062 18.6437 8.08242 19.052 8.08242 19.5566V27.5797H4.61641C3.85195 27.5797 3.22852 26.9562 3.22852 26.1918V12.9141C3.22852 12.1496 3.85195 11.5262 4.61641 11.5262H33.3762C34.1406 11.5262 34.7641 12.1496 34.7641 12.9141V26.1918C34.7641 26.9562 34.1406 27.5797 33.3762 27.5797H29.9102V19.5566C29.9176 19.052 29.5094 18.6437 29.0047 18.6437Z" fill="white"/>
<path d="M6.12314 14.4281C5.95244 14.5988 5.85596 14.8289 5.85596 15.0738C5.85596 15.3113 5.95244 15.5488 6.12314 15.7195C6.29385 15.8902 6.52393 15.9867 6.76885 15.9867C7.00635 15.9867 7.24385 15.8902 7.41455 15.7195C7.58525 15.5488 7.68174 15.3113 7.68174 15.0738C7.68174 14.8363 7.58525 14.5988 7.41455 14.4281C7.06572 14.0867 6.45713 14.0867 6.12314 14.4281Z" fill="white"/>
<path d="M24.1583 27.0082H13.8418C13.3372 27.0082 12.929 27.4164 12.929 27.9211C12.929 28.4257 13.3372 28.8339 13.8418 28.8339H24.1508C24.6555 28.8339 25.0637 28.4257 25.0637 27.9211C25.0637 27.4164 24.6555 27.0082 24.1583 27.0082Z" fill="white"/>
<path d="M24.1583 31.1273H13.8418C13.3372 31.1273 12.929 31.5355 12.929 32.0402C12.929 32.5449 13.3372 32.9531 13.8418 32.9531H24.1508C24.6555 32.9531 25.0637 32.5449 25.0637 32.0402C25.0637 31.5355 24.6555 31.1273 24.1583 31.1273Z" fill="white"/>
<path d="M24.1583 22.8817H13.8418C13.3372 22.8817 12.929 23.2899 12.929 23.7945C12.929 24.2992 13.3372 24.7074 13.8418 24.7074H24.1508C24.6555 24.7074 25.0637 24.2992 25.0637 23.7945C25.0637 23.2899 24.6555 22.8817 24.1583 22.8817Z" fill="white"/>
</svg>
