<svg width="38" height="38" viewBox="0 0 38 38" fill="none" xmlns="http://www.w3.org/2000/svg">
<path d="M18.9999 37.1613C27.6242 37.1613 34.6378 30.1476 34.6378 21.5234V7.89686C34.6378 7.53319 34.4152 7.19921 34.0812 7.05819L19.3488 0.912878C19.1261 0.816394 18.8738 0.816394 18.6511 0.912878L3.9187 7.05819C3.57729 7.19921 3.36206 7.53319 3.36206 7.89686V21.5234C3.36206 30.1402 10.3757 37.1613 18.9999 37.1613ZM5.18042 8.50546L18.9999 2.73866L32.8195 8.50546V21.5234C32.8195 29.1457 26.6222 35.343 18.9999 35.343C11.3777 35.343 5.18042 29.1383 5.18042 21.5234V8.50546Z" fill="white"/>
<path d="M14.6877 26.6H23.312C24.4104 26.6 25.301 25.7093 25.301 24.6109V19.7793C25.301 18.755 24.5291 17.9164 23.5346 17.7976V15.8828C23.5346 13.3816 21.501 11.3406 18.9924 11.3406C16.4913 11.3406 14.4502 13.3742 14.4502 15.8828V17.7976C13.4557 17.9089 12.6838 18.755 12.6838 19.7793V24.6109C12.6987 25.7019 13.5893 26.6 14.6877 26.6ZM23.4827 24.6035C23.4827 24.7 23.401 24.7742 23.312 24.7742H14.6877C14.5913 24.7742 14.517 24.6925 14.517 24.6035V19.7718C14.517 19.6754 14.5987 19.6011 14.6877 19.6011H23.312C23.4084 19.6011 23.4827 19.6828 23.4827 19.7718V24.6035ZM18.9999 13.1664C20.4991 13.1664 21.7237 14.3835 21.7237 15.8902V17.7902H16.2834V15.8828C16.276 14.3835 17.5006 13.1664 18.9999 13.1664Z" fill="white"/>
</svg>
