<svg width="69" height="60" viewBox="0 0 69 60" fill="none" xmlns="http://www.w3.org/2000/svg">
<path d="M3.83075 59.096C1.52675 48.92 0.37475 40.088 0.37475 32.6C0.37475 21.848 2.87075 13.784 7.86275 8.40798C12.8548 2.83998 20.1508 0.0559864 29.7508 0.0559864V11.576C24.7588 11.576 21.1108 12.92 18.8068 15.608C16.6948 18.296 15.6388 22.328 15.6388 27.704V34.328H30.0388V59.096H3.83075ZM42.7108 59.096C40.4068 48.92 39.2548 40.088 39.2548 32.6C39.2548 21.848 41.7508 13.784 46.7428 8.40798C51.7348 2.83998 59.0308 0.0559864 68.6308 0.0559864V11.576C63.6388 11.576 59.9908 12.92 57.6868 15.608C55.5748 18.296 54.5188 22.328 54.5188 27.704V34.328H68.9188V59.096H42.7108Z" fill="#6552FF"/>
</svg>
