<svg width="38" height="38" viewBox="0 0 38 38" fill="none" xmlns="http://www.w3.org/2000/svg">
<path d="M34.9124 27.2977V21.5012C34.9124 19.3266 33.146 17.5527 30.964 17.5527H7.03584C4.86123 17.5527 3.0874 19.3191 3.0874 21.5012V27.2977C3.0874 29.4723 4.85381 31.2461 7.03584 31.2461H14.3241L11.2812 35.7512C10.9991 36.1668 11.1105 36.7309 11.5261 37.0129C11.6819 37.1168 11.8601 37.1688 12.0308 37.1688C12.3202 37.1688 12.6097 37.0277 12.7878 36.768L16.5136 31.2461H21.6718L25.3976 36.768C25.5757 37.0277 25.8577 37.1688 26.1546 37.1688C26.3327 37.1688 26.5034 37.1168 26.6593 37.0129C27.0749 36.7309 27.1862 36.1668 26.9042 35.7512L23.8612 31.2461H30.9565C33.146 31.2461 34.9124 29.4797 34.9124 27.2977ZM4.90576 27.2977V21.5012C4.90576 20.3285 5.86318 19.3711 7.03584 19.3711H30.9714C32.144 19.3711 33.1015 20.3285 33.1015 21.5012V27.2977C33.1015 28.4703 32.144 29.4277 30.9714 29.4277H7.03584C5.86318 29.4277 4.90576 28.4703 4.90576 27.2977Z" fill="white"/>
<path d="M24.7594 10.116C25.0414 10.116 25.3234 9.98242 25.5015 9.73008C25.791 9.32188 25.6945 8.75039 25.2863 8.46094C23.4754 7.17696 21.3379 6.49414 19.0965 6.49414C16.8551 6.49414 14.7175 7.17696 12.9066 8.46094C12.4984 8.75039 12.4019 9.32188 12.6914 9.73008C12.9808 10.1383 13.5523 10.2348 13.9605 9.94531C15.4597 8.87656 17.241 8.3125 19.0965 8.3125C20.9594 8.3125 22.7332 8.87656 24.2324 9.94531C24.3957 10.0641 24.5812 10.116 24.7594 10.116Z" fill="white"/>
<path d="M19.0966 12.1348C18.102 12.1348 17.152 12.4391 16.3505 13.0031C15.9423 13.2926 15.8458 13.8641 16.1352 14.2723C16.4247 14.6805 16.9962 14.777 17.4044 14.4875C18.3915 13.7824 19.8016 13.7824 20.7962 14.4875C20.9595 14.5988 21.1376 14.6582 21.3231 14.6582C21.6052 14.6582 21.8872 14.5246 22.0653 14.2723C22.3548 13.8641 22.2583 13.2926 21.8501 13.0031C21.0411 12.4316 20.0911 12.1348 19.0966 12.1348Z" fill="white"/>
<path d="M28.7672 5.71483C29.0492 5.71483 29.3312 5.58123 29.5093 5.32889C29.7988 4.92069 29.7023 4.3492 29.2941 4.05975C26.3179 1.95194 22.7851 0.831233 19.0965 0.831233C15.4078 0.831233 11.8824 1.95194 8.8988 4.06717C8.49059 4.35662 8.39411 4.92811 8.68356 5.33631C8.97301 5.74451 9.5445 5.841 9.9527 5.55155C12.6246 3.65155 15.7863 2.64959 19.1039 2.64959C22.414 2.64959 25.5758 3.65155 28.255 5.55155C28.4035 5.66287 28.589 5.71483 28.7672 5.71483Z" fill="white"/>
<path d="M27.8244 23.4902H18.7772C18.2725 23.4902 17.8643 23.8984 17.8643 24.4031C17.8643 24.9078 18.2799 25.3086 18.7772 25.3086H27.8244C28.3291 25.3086 28.7373 24.9004 28.7373 24.3957C28.7373 23.891 28.3291 23.4902 27.8244 23.4902Z" fill="white"/>
<path d="M11.3923 25.6426C12.0768 25.6426 12.6317 25.0877 12.6317 24.4031C12.6317 23.7186 12.0768 23.1637 11.3923 23.1637C10.7078 23.1637 10.1528 23.7186 10.1528 24.4031C10.1528 25.0877 10.7078 25.6426 11.3923 25.6426Z" fill="white"/>
</svg>
